<?xml version="1.0" encoding="utf-8"?>
<!-- Generator: Adobe Illustrator 18.0.0, SVG Export Plug-In . SVG Version: 6.00 Build 0)  -->
<!DOCTYPE svg PUBLIC "-//W3C//DTD SVG 1.1//EN" "http://www.w3.org/Graphics/SVG/1.1/DTD/svg11.dtd">
<svg version="1.1" id="Layer_1" xmlns="http://www.w3.org/2000/svg" xmlns:xlink="http://www.w3.org/1999/xlink" x="0px" y="0px"
	 viewBox="0 0 166 166" enable-background="new 0 0 166 166" xml:space="preserve">
<g>
	<g>
		<path fill="#00BBDE" d="M83,2.5c44.4,0,80.5,36,80.5,80.5s-36,80.5-80.5,80.5c-44.4,0-80.5-36-80.5-80.5S38.6,2.5,83,2.5 M83,0.1
			C37.3,0.1,0.1,37.3,0.1,83s37.2,82.9,82.9,82.9s82.9-37.2,82.9-82.9S128.7,0.1,83,0.1L83,0.1z"/>
	</g>
	<g>
		<path fill="#00BBDE" d="M131.1,111.7c-0.1,0-0.3,0-0.4-0.1l-12.2-4.4c-0.6-0.2-0.9-0.9-0.7-1.5c0.2-0.6,0.9-0.9,1.5-0.7l12.2,4.4
			c0.6,0.2,0.9,0.9,0.7,1.5C132,111.4,131.6,111.7,131.1,111.7z"/>
		<path fill="#00BBDE" d="M85.9,94.6c-0.2,0-0.4-0.1-0.6-0.2c-0.5-0.3-0.7-1-0.4-1.6c2.1-3.3,4.3-9.5,5.3-12.6
			c0.2-0.6,0.8-0.9,1.4-0.7c0.6,0.2,0.9,0.8,0.7,1.4c-1,3.2-3.4,9.6-5.6,13.2C86.6,94.4,86.3,94.6,85.9,94.6z"/>
		<path fill="#00BBDE" d="M91.4,81.8c-0.5,0-0.9-0.3-1.1-0.7c-0.5-0.7-3.5-2.9-5.4-4.3c-3-2.3-3.8-2.9-4.1-3.3
			c-0.4-0.7-2.2-2.2-4.3-2.9c-0.7-0.2-1.6-0.6-2.7-1c-2.6-1-6.4-2.5-8.3-2.5c-1.4,0.1-4.1-0.1-6.6-0.3c-2.5-0.2-5.2-0.4-6.1-0.3
			c-0.6,0.1-1.1,0.2-1.9,0.4c-1.5,0.4-3.8,1-8.4,1.3c-3.8,0.3-6.3-1.6-6.4-1.6c0,0-0.2-0.2-0.2-0.2c-1.4-1.3-3.6-3.2-3-5.4
			c0.5-1.8,2.7-3.1,7-4c9.8-2,21-4,29.4-3.7c5.1,0.2,9.6,1,13.5,1.7c2.6,0.5,5,0.9,7.3,1.1c3.8,0.4,6,1.9,8.7,3.9
			c1.9,1.3,3.9,2.8,7.1,4.4c2,1,3.8,1.9,5.6,2.8c10.9,5.6,18.8,9.6,31.2,9.7c0.6,0,1.1,0.5,1.1,1.2c0,0.6-0.5,1.1-1.1,1.1
			c0,0,0,0,0,0c-13-0.2-21.5-4.5-32.2-10c-1.8-0.9-3.7-1.9-5.6-2.8c-3.3-1.6-5.6-3.3-7.4-4.6c-2.7-1.9-4.4-3.2-7.6-3.5
			c-2.4-0.2-4.8-0.7-7.5-1.1c-3.9-0.7-8.3-1.5-13.2-1.7c-8.3-0.3-19.2,1.7-28.9,3.6c-4.5,0.9-5.2,2-5.2,2.3
			c-0.2,0.8,1.4,2.3,2.3,3.1c0.1,0.1,2,1.5,5,1.3c4.4-0.3,6.5-0.9,8-1.3c0.8-0.2,1.5-0.4,2.2-0.5c1.1-0.1,3.6,0.1,6.5,0.3
			c2.5,0.2,5.1,0.4,6.4,0.3c2.2-0.1,6.1,1.5,9.2,2.7c1,0.4,1.9,0.8,2.5,1c2.6,0.9,4.8,2.8,5.5,3.8c0.3,0.3,2.1,1.7,3.6,2.8
			c5.1,3.8,6,4.7,6.2,5.5c0.1,0.6-0.3,1.2-0.9,1.4C91.5,81.7,91.4,81.8,91.4,81.8z"/>
		<g>
			<path fill="#00BBDE" d="M51.1,100.5c-0.1,0-0.2,0-0.2,0c-1.9-0.1-3.9-2.3-3.9-4.2c0-1.2,0.9-2.5,2.8-5c1.5-2.1,3.5-4.7,4.4-7.3
				c1.9-5,1.9-8.7,1.9-10.7c0-0.5,0-0.9,0-1.3c-0.1-2.4-0.2-5.7,1.6-7.5l1.6,1.6c-1.1,1.1-1,3.9-0.9,5.8c0,0.4,0,0.8,0,1.1
				c0,2.4,0,6.4-2.1,11.7c-1.1,2.8-3.1,5.6-4.7,7.8c-1,1.3-2.3,3.1-2.3,3.7c0,0.6,1,1.8,1.7,1.9c0.9,0,3.3-0.7,5.7-1.9
				c1.2-0.6,4.2-2.8,6.5-8.7c2-5.3,4.2-11.7,4.2-11.7c0.2-0.5,0.6-0.8,1.1-0.8c1.5,0,7.4-1.8,11-2.9l1.5-0.5
				c0.6-0.2,1.3,0.2,1.4,0.8c0.2,0.6-0.2,1.2-0.8,1.4l-1.5,0.5c-4.6,1.4-8.7,2.6-10.8,2.9c-0.6,1.8-2.3,6.8-4,11.1
				c-2.5,6.4-5.8,9-7.5,9.9C55.7,99.4,52.9,100.5,51.1,100.5z"/>
		</g>
		<path fill="#00BBDE" d="M104.8,110.9c-3.8,0-7.7-1-11.3-1.9c-1.2-0.3-2.4-0.6-3.6-0.9c-5.1-1.1-7.5-1-12.5-0.2
			c-3.9,0.7-6.4,0.6-9.2,0.6c-2.3,0-4.6,0-7.9,0.3c-5.1,0.6-8.7,0-10.8-1.7c-1-0.9-1.7-2.1-1.8-3.4c-0.3-4.8,5.9-5.7,10.4-6.4
			c1.4-0.2,2.8-0.4,3.7-0.7c2.8-0.8,9.5-2,20-3.6c7.7-1.2,10.7-3.7,10.7-3.7c0.5-0.4,1.2-0.4,1.6,0.1c0.4,0.5,0.4,1.2-0.1,1.6
			c-0.1,0.1-3.4,3-11.9,4.3c-10.4,1.6-17,2.8-19.7,3.6c-1.1,0.3-2.5,0.5-4,0.7c-4.7,0.7-8.6,1.5-8.4,3.9c0.1,0.7,0.4,1.3,0.9,1.8
			c1.5,1.2,4.7,1.7,9,1.2c3.4-0.4,5.8-0.3,8.1-0.3c2.6,0,5.1,0.1,8.8-0.6c5.3-0.9,8-1,13.4,0.2c1.2,0.3,2.4,0.6,3.6,0.9
			c4.5,1.2,9.2,2.4,13.6,1.6c4.3-0.8,12.5-3.8,12.8-7.5c0.1-0.6,0.6-1.1,1.2-1c0.6,0.1,1.1,0.6,1,1.2c-0.5,5.8-10.8,8.8-14.7,9.5
			C107,110.8,105.9,110.9,104.8,110.9z"/>
		<path fill="#00BBDE" d="M48.1,81.4c-0.2,0-0.3,0-0.4,0c-4.9-0.2-8.4-4.3-8.5-4.5c-0.4-0.5-0.3-1.2,0.1-1.6
			c0.5-0.4,1.2-0.3,1.6,0.1c0,0,3,3.5,6.9,3.7c1.1,0.1,2.8-0.2,4.7-0.4c0.9-0.1,1.9-0.3,2.9-0.4c0.6-0.1,1.2,0.4,1.3,1
			c0.1,0.6-0.4,1.2-1,1.3c-1,0.1-2,0.2-2.9,0.4C50.9,81.2,49.3,81.4,48.1,81.4z"/>
		<path fill="#00BBDE" d="M36.5,97.6c-0.1,0-0.1,0-0.2,0l-8.2-1.3c-0.6-0.1-1.1-0.7-1-1.3c0.1-0.6,0.7-1.1,1.3-1l8.2,1.3
			c0.6,0.1,1.1,0.7,1,1.3C37.5,97.2,37,97.6,36.5,97.6z"/>
		<path fill="#00BBDE" d="M40.2,76c-0.3,0-0.6,0-0.9,0c-7.2-0.2-8.6-3.9-8.9-5.4c-0.2-1-0.1-2.4,1.3-3.5c0.8-0.6,2.4-0.7,5.9-0.9
			c1.3-0.1,3.1-0.2,3.5-0.3c0.1,0,0.4-0.1,0.8-0.2l0.7,0c0.6,0,1.2,0.4,1.2,1.1c0,0.6-0.4,1.2-1.1,1.2c-0.2,0-0.4,0-0.6,0
			c0,0-0.2,0.1-0.3,0.1c-0.7,0.2-1.9,0.3-4.1,0.4c-1.5,0.1-4.1,0.2-4.7,0.5c-0.2,0.2-0.5,0.5-0.4,1.2c0.4,2.2,2.9,3.5,6.7,3.6
			c5.9,0.2,15.7-1.4,17.7-1.7c0.6-0.1,1.2,0.3,1.3,0.9c0.1,0.6-0.3,1.2-0.9,1.3C54.8,74.7,46.2,76,40.2,76z"/>
		<path fill="#00BBDE" d="M28.6,110.1c-0.5,0-0.9-0.3-1.1-0.7c-0.2-0.6,0.1-1.3,0.7-1.5l8.6-3.4c0.6-0.2,1.3,0.1,1.5,0.7
			c0.2,0.6-0.1,1.3-0.7,1.5L29,110C28.8,110,28.7,110.1,28.6,110.1z"/>
		<path fill="#00BBDE" d="M38.9,120.4c-0.2,0-0.4-0.1-0.6-0.2c-0.5-0.4-0.7-1.1-0.3-1.6l4.9-7.3c0.4-0.5,1.1-0.7,1.6-0.3
			c0.5,0.4,0.7,1.1,0.3,1.6l-4.9,7.3C39.6,120.2,39.3,120.4,38.9,120.4z"/>
	</g>
</g>
</svg>
