<svg 
 xmlns="http://www.w3.org/2000/svg"
 xmlns:xlink="http://www.w3.org/1999/xlink"
 width="167px" height="166px">
<path fill-rule="evenodd"  fill="rgb(0, 187, 222)"
 d="M103.041,96.905 C102.942,96.905 102.842,96.892 102.742,96.865 C88.446,93.044 87.768,79.247 87.763,79.107 C87.740,78.474 88.234,77.941 88.869,77.916 C89.430,77.876 90.037,78.385 90.064,79.020 C90.085,79.518 90.714,91.267 103.338,94.642 C103.952,94.806 104.316,95.437 104.152,96.052 C104.015,96.565 103.549,96.905 103.041,96.905 ZM141.890,75.142 C141.890,75.142 114.323,76.303 114.323,76.303 C114.682,77.747 114.899,79.157 114.850,80.481 C114.754,83.163 114.566,85.146 114.224,87.117 C114.115,87.742 113.515,88.163 112.893,88.054 C112.267,87.945 111.846,87.349 111.955,86.723 C112.279,84.861 112.457,82.969 112.550,80.398 C112.688,76.593 110.310,71.613 108.212,67.220 C106.921,64.518 105.704,61.967 105.094,59.794 C103.625,54.551 103.152,44.149 103.070,42.047 C102.946,41.923 102.721,41.748 102.378,41.668 C101.627,41.492 100.590,41.811 99.380,42.589 C95.765,44.912 95.248,50.168 95.585,57.894 C96.002,67.388 93.125,70.843 90.640,72.070 C88.158,73.295 84.968,70.952 82.152,68.889 C81.409,68.345 80.715,67.834 80.114,67.460 C77.634,65.918 61.239,54.646 58.138,51.932 C56.036,50.096 53.242,49.467 51.634,50.483 C50.788,51.015 50.616,52.035 50.620,52.795 C50.626,53.887 50.997,55.122 51.613,56.099 C52.891,58.131 56.929,62.263 62.770,66.537 C68.953,71.060 71.658,73.623 70.312,75.948 C69.154,77.958 67.146,77.322 64.106,76.358 C64.106,76.358 62.541,75.868 62.541,75.868 C58.671,74.686 50.626,71.533 43.339,68.019 C40.663,66.730 37.119,65.853 35.420,68.999 C34.044,71.547 36.640,74.294 38.600,75.427 C43.621,78.330 52.940,81.970 60.274,83.896 C66.887,85.632 67.994,87.167 67.971,89.950 C67.966,91.075 67.582,92.339 65.787,92.796 C64.733,93.064 63.224,93.063 61.313,93.046 C60.294,93.036 59.080,93.056 57.717,93.077 C54.091,93.127 49.121,93.195 43.769,92.871 C37.145,92.473 36.765,93.803 36.293,95.491 C36.084,96.246 36.295,97.246 36.846,98.099 C37.610,99.284 38.905,100.072 40.494,100.318 C43.157,100.732 51.261,101.990 59.057,101.813 C60.755,101.775 62.153,101.689 63.309,101.620 C67.117,101.392 69.217,101.262 70.074,104.318 C71.024,107.701 68.521,108.951 66.511,109.954 C66.511,109.954 65.665,110.385 65.665,110.385 C64.657,110.919 63.365,111.486 61.921,112.119 C59.210,113.307 55.836,114.786 52.962,116.723 C50.471,118.403 49.783,119.829 49.646,120.729 C49.521,121.556 49.825,122.142 50.103,122.488 C51.561,124.315 52.715,124.608 56.674,122.761 C60.662,120.897 68.072,117.695 72.329,116.082 C73.773,115.534 76.067,114.858 78.495,114.144 C79.876,113.738 81.320,113.313 82.708,112.882 C84.432,112.347 87.192,111.871 90.389,111.319 C94.619,110.588 99.414,109.761 103.494,108.537 C106.210,107.723 107.730,106.399 108.580,104.112 C108.756,103.638 109.212,103.347 109.731,103.364 C109.731,103.364 124.421,104.279 139.983,105.350 C140.618,105.394 141.096,105.943 141.054,106.577 C141.008,107.212 140.454,107.680 139.826,107.647 C126.437,106.725 113.695,105.918 110.405,105.713 C109.238,108.211 107.232,109.820 104.155,110.742 C99.943,112.006 95.075,112.846 90.780,113.587 C87.663,114.125 84.972,114.591 83.390,115.081 C81.992,115.514 80.537,115.943 79.145,116.352 C76.760,117.054 74.507,117.717 73.146,118.233 C68.937,119.829 61.601,123.000 57.649,124.848 C55.758,125.730 54.133,126.293 52.671,126.293 C51.063,126.293 49.653,125.612 48.304,123.927 C47.506,122.929 47.174,121.670 47.370,120.382 C47.671,118.411 49.119,116.537 51.675,114.814 C54.722,112.761 58.201,111.237 60.997,110.012 C62.381,109.405 63.621,108.863 64.588,108.351 C64.887,108.192 65.187,108.043 65.482,107.895 C67.724,106.776 68.250,106.340 67.857,104.939 C67.543,103.817 67.510,103.674 63.447,103.918 C62.268,103.989 60.843,104.075 59.109,104.114 C51.120,104.298 42.854,103.014 40.141,102.593 C37.894,102.244 36.036,101.091 34.911,99.347 C34.001,97.937 33.689,96.265 34.075,94.874 C34.966,91.680 36.725,90.140 43.909,90.574 C49.177,90.892 53.894,90.829 57.686,90.775 C59.063,90.754 60.287,90.732 61.324,90.744 C63.006,90.754 64.450,90.761 65.220,90.565 C65.665,90.451 65.666,90.402 65.667,90.082 C65.679,88.634 65.687,87.696 59.689,86.122 C52.184,84.152 42.621,80.410 37.446,77.418 C33.966,75.408 31.457,71.494 33.394,67.907 C35.365,64.257 39.354,63.543 44.339,65.946 C51.523,69.410 59.425,72.510 63.213,73.668 C63.213,73.668 64.802,74.163 64.802,74.163 C67.183,74.917 68.101,75.167 68.319,74.796 C68.448,74.574 68.329,73.456 61.410,68.393 C55.292,63.919 51.102,59.610 49.663,57.326 C48.817,55.979 48.325,54.333 48.317,52.808 C48.306,50.907 49.049,49.390 50.409,48.535 C53.214,46.772 57.185,48.038 59.654,50.201 C62.546,52.731 78.451,63.715 81.331,65.507 C81.973,65.906 82.718,66.450 83.513,67.033 C85.457,68.457 88.396,70.597 89.621,70.006 C92.227,68.720 93.563,64.341 93.285,57.995 C92.913,49.452 93.594,43.571 98.134,40.654 C99.952,39.487 101.587,39.082 103.002,39.452 C104.515,39.847 105.157,40.981 105.225,41.109 C105.307,41.264 105.353,41.436 105.359,41.611 C105.363,41.732 105.782,53.714 107.312,59.174 C107.867,61.154 109.044,63.619 110.290,66.229 C111.504,68.770 112.792,71.496 113.694,74.162 C113.847,74.076 114.015,74.013 114.203,74.005 C114.203,74.005 141.793,72.843 141.793,72.843 C142.431,72.804 142.966,73.309 142.992,73.944 C143.019,74.579 142.525,75.115 141.890,75.142 Z"/>
<path fill-rule="evenodd"  fill="rgb(0, 187, 222)"
 d="M83.870,2.436 C128.381,2.436 164.464,38.505 164.464,82.999 C164.464,127.492 128.381,163.561 83.870,163.561 C39.359,163.561 3.276,127.492 3.276,82.999 C3.276,38.505 39.359,2.436 83.870,2.436 M83.870,-0.005 C38.083,-0.005 0.833,37.230 0.833,82.999 C0.833,128.767 38.083,166.003 83.870,166.003 C129.656,166.003 166.906,128.767 166.906,82.999 C166.906,37.230 129.656,-0.005 83.870,-0.005 C83.870,-0.005 83.870,-0.005 83.870,-0.005 Z"/>
</svg>
