<svg 
 xmlns="http://www.w3.org/2000/svg"
 xmlns:xlink="http://www.w3.org/1999/xlink"
 width="167px" height="166px">
<path fill-rule="evenodd"  fill="rgb(0, 187, 222)"
 d="M87.699,108.832 C87.645,108.840 87.592,108.843 87.539,108.843 C86.974,108.843 86.480,108.426 86.400,107.851 C85.688,102.741 88.287,97.204 88.397,96.970 C88.670,96.398 89.359,96.156 89.930,96.425 C90.504,96.698 90.749,97.383 90.477,97.958 C90.453,98.008 88.065,103.116 88.680,107.534 C88.768,108.163 88.328,108.744 87.699,108.832 ZM137.940,75.900 C136.259,76.053 126.193,76.934 117.881,76.934 C113.967,76.934 110.466,76.732 108.385,76.174 C107.843,80.302 107.020,84.399 106.398,87.501 C106.272,88.124 105.675,88.526 105.042,88.402 C104.419,88.278 104.015,87.671 104.140,87.047 C104.849,83.522 105.818,78.695 106.320,74.063 C106.758,70.036 104.530,61.426 92.965,57.665 C90.575,56.888 88.360,56.482 85.794,56.012 C82.214,55.357 77.757,54.542 71.092,52.367 C69.788,51.942 68.804,51.568 68.026,51.271 C66.057,50.522 65.896,50.501 65.191,50.918 C64.674,51.221 64.422,51.955 64.500,52.931 C64.691,55.335 66.898,58.701 71.290,60.410 C71.426,60.463 71.544,60.543 71.646,60.637 C77.454,63.172 79.069,66.810 81.496,77.724 C83.106,84.970 92.157,86.902 92.248,86.921 C92.870,87.048 93.272,87.655 93.146,88.278 C93.035,88.823 92.556,89.199 92.020,89.199 C91.944,89.199 91.868,89.192 91.790,89.177 C91.359,89.089 81.185,86.941 79.247,78.223 C76.678,66.663 75.171,64.627 70.542,62.662 C70.539,62.661 70.537,62.658 70.534,62.657 C70.534,62.657 48.591,64.055 48.591,64.055 C48.461,64.057 43.950,64.051 42.263,66.702 C41.881,67.304 41.757,67.872 41.888,68.436 C42.097,69.342 42.912,70.096 43.419,70.472 C43.419,70.472 64.446,73.881 64.446,73.881 C64.875,72.887 65.259,72.052 65.544,71.437 C65.737,71.023 65.877,70.730 65.940,70.563 C66.030,70.071 66.437,69.677 66.960,69.626 C67.601,69.572 68.155,70.026 68.218,70.659 C68.257,71.060 68.149,71.292 67.633,72.406 C65.873,76.201 60.515,87.750 61.533,102.905 C61.575,103.540 61.095,104.089 60.461,104.132 C60.434,104.133 60.408,104.134 60.382,104.134 C59.782,104.134 59.276,103.668 59.234,103.060 C59.131,101.524 59.095,100.026 59.108,98.566 C59.108,98.566 39.453,92.111 39.453,92.111 C38.421,92.212 37.662,92.753 37.422,93.607 C37.082,94.813 37.711,96.777 40.495,98.670 C44.693,101.525 52.937,106.795 60.989,110.014 C66.796,112.335 84.467,119.400 95.380,112.128 C96.436,111.424 97.388,110.684 98.211,109.927 C98.622,109.553 99.217,109.548 99.651,109.860 C103.580,110.161 123.765,111.676 137.859,112.109 C138.495,112.129 138.994,112.660 138.975,113.295 C138.955,113.918 138.444,114.411 137.825,114.411 C137.812,114.411 137.800,114.411 137.789,114.411 C123.217,113.963 102.188,112.364 99.166,112.131 C98.400,112.787 97.574,113.432 96.658,114.043 C92.707,116.677 88.027,117.623 83.318,117.623 C73.824,117.623 64.203,113.777 60.135,112.152 C51.880,108.852 43.474,103.482 39.199,100.574 C35.405,97.993 34.648,94.960 35.205,92.983 C35.460,92.077 35.978,91.322 36.687,90.773 C34.662,89.399 32.847,87.104 33.835,83.944 C34.342,82.320 35.192,81.145 36.364,80.447 C35.804,80.000 35.293,79.451 34.922,78.784 C34.193,77.473 34.125,75.984 34.719,74.359 C35.805,71.387 38.030,70.337 40.105,70.155 C39.910,69.796 39.749,69.400 39.649,68.972 C39.374,67.803 39.605,66.592 40.320,65.468 C42.701,61.725 48.288,61.746 48.532,61.755 C48.532,61.755 66.855,60.585 66.855,60.585 C63.903,58.395 62.394,55.490 62.204,53.115 C62.053,51.223 62.718,49.699 64.026,48.932 C65.731,47.934 66.834,48.356 68.845,49.120 C69.596,49.407 70.547,49.769 71.807,50.180 C78.325,52.305 82.513,53.072 86.209,53.748 C88.855,54.233 91.141,54.651 93.678,55.476 C106.250,59.565 108.945,69.020 108.638,73.851 C112.446,75.260 127.935,74.499 137.730,73.607 C138.376,73.556 138.923,74.017 138.982,74.649 C139.039,75.283 138.573,75.842 137.940,75.900 ZM36.032,84.630 C34.946,88.106 39.698,89.765 39.921,89.841 C39.921,89.841 59.181,96.167 59.181,96.167 C59.334,93.043 59.715,90.121 60.232,87.452 C60.232,87.452 40.135,82.223 40.135,82.223 C40.135,82.223 40.135,82.223 40.134,82.223 C40.067,82.208 39.933,82.177 39.712,82.114 C39.270,82.028 38.448,81.957 37.695,82.341 C36.949,82.720 36.388,83.491 36.032,84.630 ZM36.882,75.148 C36.522,76.131 36.540,76.955 36.935,77.665 C37.670,78.989 39.514,79.655 40.298,79.886 C40.511,79.932 40.639,79.971 40.721,79.997 C40.721,79.997 60.715,85.199 60.715,85.199 C61.555,81.578 62.599,78.488 63.547,76.067 C63.547,76.067 43.226,72.774 43.226,72.774 C43.056,72.796 42.882,72.793 42.711,72.736 C42.260,72.584 38.271,71.350 36.882,75.148 Z"/>
<path fill-rule="evenodd"  fill="rgb(0, 187, 222)"
 d="M83.969,2.436 C128.479,2.436 164.563,38.505 164.563,82.999 C164.563,127.492 128.479,163.561 83.969,163.561 C39.458,163.561 3.375,127.492 3.375,82.999 C3.375,38.505 39.458,2.436 83.969,2.436 M83.969,-0.005 C38.182,-0.005 0.932,37.230 0.932,82.999 C0.932,128.767 38.182,166.003 83.969,166.003 C129.755,166.003 167.005,128.767 167.005,82.999 C167.005,37.230 129.755,-0.005 83.969,-0.005 C83.969,-0.005 83.969,-0.005 83.969,-0.005 Z"/>
</svg>
